<svg fill="#EEA944" height="200px" width="200px" version="1.1" id="Layer_1" xmlns="http://www.w3.org/2000/svg" xmlns:xlink="http://www.w3.org/1999/xlink" viewBox="0 0 512 512" xml:space="preserve" stroke="#EEA944"><g id="SVGRepo_bgCarrier" stroke-width="0"></g><g id="SVGRepo_tracerCarrier" stroke-linecap="round" stroke-linejoin="round"></g><g id="SVGRepo_iconCarrier"> <g> <g> <g> <path d="M192.006,145.833v-24.555c-30.933,14.763-55.957,39.787-70.72,70.72h24.555 C171.292,191.998,192.006,171.283,192.006,145.833z"></path> <path d="M145.839,320h-24.555c14.763,30.933,39.787,55.957,70.72,70.72v-24.555C192.004,340.715,171.29,320,145.839,320z"></path> <path d="M366.174,192h24.555c-14.763-30.933-39.787-55.957-70.72-70.72v24.555C320.009,171.285,340.723,192,366.174,192z"></path> <path d="M403.633,234.667h-37.461c-48.981,0-88.832-39.851-88.832-88.832v-37.461c-0.256-0.043-0.512-0.085-0.768-0.128 c-13.888-2.027-27.243-2.027-41.131,0c-0.256,0.043-0.512,0.085-0.768,0.128v37.461c0,48.981-39.851,88.832-88.832,88.832H108.38 c-0.043,0.256-0.085,0.512-0.128,0.768c-1.003,6.955-1.579,13.824-1.579,20.565s0.576,13.611,1.579,20.565 c0.043,0.256,0.085,0.512,0.128,0.768h37.461c48.981,0,88.832,39.851,88.832,88.832v37.461c0.256,0.043,0.512,0.085,0.768,0.128 c13.888,2.027,27.243,2.027,41.131,0c0.256-0.043,0.512-0.085,0.768-0.128v-37.461c0-48.981,39.851-88.832,88.832-88.832h37.461 c0.043-0.256,0.085-0.512,0.128-0.768c1.003-6.955,1.579-13.824,1.579-20.565s-0.576-13.611-1.579-20.565 C403.718,235.179,403.676,234.923,403.633,234.667z M256.006,277.333c-11.776,0-21.333-9.557-21.333-21.333 s9.557-21.333,21.333-21.333c11.776,0,21.333,9.557,21.333,21.333S267.782,277.333,256.006,277.333z"></path> <path d="M320.006,366.167v24.555c30.933-14.763,55.957-39.787,70.72-70.72h-24.555 C340.721,320.002,320.006,340.717,320.006,366.167z"></path> <path d="M256,0C114.859,0,0,114.837,0,256s114.859,256,256,256c141.163,0,256-114.837,256-256S397.163,0,256,0z M446.123,281.493 c-1.003,7.403-2.432,14.656-4.245,21.781c-0.064,0.235-0.085,0.469-0.149,0.725l-4.117,16H436.8 c-19.328,54.4-62.4,97.472-116.8,116.8v0.811l-16,4.117c-0.256,0.064-0.491,0.085-0.725,0.149 c-7.125,1.813-14.379,3.243-21.781,4.224c-0.811,0.128-1.621,0.277-2.432,0.384C271.488,447.381,263.829,448,256,448 c-7.808,0-15.467-0.619-23.04-1.515c-0.811-0.107-1.621-0.256-2.432-0.384c-7.424-0.981-14.677-2.411-21.781-4.224 c-0.256-0.064-0.491-0.085-0.725-0.149L192,437.611V436.8C137.621,417.472,94.528,374.4,75.2,320h-0.789l-4.139-16 c-0.064-0.256-0.064-0.491-0.128-0.725c-1.813-7.125-3.264-14.379-4.245-21.781c-0.107-0.832-0.277-1.643-0.363-2.453 C64.619,271.467,64,263.808,64,256s0.619-15.467,1.536-23.04c0.085-0.811,0.256-1.621,0.363-2.453 c0.981-7.403,2.432-14.656,4.245-21.781c0.064-0.235,0.064-0.469,0.128-0.725l4.139-16H75.2 C94.528,137.6,137.621,94.528,192,75.2v-0.811l16.021-4.117c0.235-0.064,0.469-0.085,0.725-0.149 c7.083-1.792,14.293-3.221,21.653-4.203c0.832-0.128,1.664-0.277,2.496-0.384C240.491,64.619,248.171,64,256,64 c7.851,0,15.531,0.619,23.125,1.536c0.832,0.107,1.664,0.256,2.496,0.384c7.36,0.981,14.571,2.411,21.653,4.203 c0.235,0.064,0.469,0.085,0.725,0.149l16,4.117V75.2c54.4,19.328,97.472,62.4,116.8,116.8h0.811l4.117,16 c0.064,0.256,0.085,0.491,0.149,0.725c1.813,7.125,3.243,14.379,4.245,21.781c0.107,0.832,0.256,1.643,0.363,2.453 C447.403,240.533,448,248.192,448,256s-0.597,15.467-1.515,23.04C446.379,279.851,446.229,280.661,446.123,281.493z"></path> </g> </g> </g> </g></svg>
